<?xml version="1.0" encoding="utf-8"?>
<!-- Generator: Adobe Illustrator 16.0.4, SVG Export Plug-In . SVG Version: 6.00 Build 0)  -->
<!DOCTYPE svg PUBLIC "-//W3C//DTD SVG 1.1//EN" "http://www.w3.org/Graphics/SVG/1.1/DTD/svg11.dtd">
<svg version="1.1" id="Layer_1" xmlns="http://www.w3.org/2000/svg" xmlns:xlink="http://www.w3.org/1999/xlink" x="0px" y="0px"
	 width="292.839px" height="184.951px" viewBox="0 0 292.839 184.951" enable-background="new 0 0 292.839 184.951"
	 xml:space="preserve">
<path fill="#ECF0F1" d="M184.951,46.238c0,30.825-17.248,61.65-38.532,61.65c-21.282,0-38.531-30.825-38.531-61.65
	C107.888,15.413,123.301,0,146.419,0C169.539,0,184.951,15.413,184.951,46.238z M200.363,131.007
	c-15.412-7.706-30.824-23.119-30.824-23.119c-7.707,7.706-23.12,15.413-23.12,15.413s-15.412-7.707-23.118-15.413
	c0,0-15.413,15.413-30.825,23.119s-38.531,15.413-38.531,30.825s0,23.119,0,23.119h92.475h92.477c0,0,0-7.706,0-23.119
	S215.776,138.713,200.363,131.007z M78.026,120.802c2.619-1.219,5.178-2.394,7.556-3.583c0.692-0.346,1.399-0.79,2.107-1.174
	c-0.768-0.369-1.551-0.729-2.272-1.091c-9.001-4.5-17.986-13.486-17.986-13.486c-0.588,0.579-1.234,0.451-1.928-0.173v-5.53
	c6.518-6.699,10.913-18.431,10.913-30.262c0-17.979-8.985-26.972-22.472-26.972c-13.487,0-22.472,8.993-22.472,26.972
	c0,11.831,4.38,23.563,10.912,30.262v5.53c-0.692,0.625-1.354,0.752-1.927,0.173c0,0-8.985,8.985-17.986,13.486
	C13.486,119.446,0,123.94,0,132.935c0,8.996,0,13.485,0,13.485h42.655C49.985,133.792,65.685,126.506,78.026,120.802z
	 M270.367,114.955c-9-4.5-17.986-13.486-17.986-13.486c-0.586,0.579-1.23,0.451-1.926-0.173v-5.531
	c6.521-6.698,10.912-18.43,10.912-30.261c0-17.979-8.986-26.972-22.472-26.972s-22.474,8.993-22.474,26.972
	c0,11.831,4.382,23.563,10.912,30.261v5.531c-0.69,0.625-1.354,0.752-1.926,0.173c0,0-8.986,8.985-17.986,13.486
	c-0.723,0.36-1.506,0.724-2.272,1.091c0.692,0.385,1.399,0.828,2.106,1.174c2.363,1.189,4.923,2.363,7.557,3.584
	c12.344,5.703,28.025,12.988,35.355,25.616h42.67c0,0,0-4.493,0-13.485C292.837,123.94,279.353,119.446,270.367,114.955z"/>
</svg>
