<?xml version="1.0" encoding="utf-8"?>
<!-- Generator: Adobe Illustrator 16.0.4, SVG Export Plug-In . SVG Version: 6.00 Build 0)  -->
<!DOCTYPE svg PUBLIC "-//W3C//DTD SVG 1.1//EN" "http://www.w3.org/Graphics/SVG/1.1/DTD/svg11.dtd">
<svg version="1.1" id="Layer_1" xmlns="http://www.w3.org/2000/svg" xmlns:xlink="http://www.w3.org/1999/xlink" x="0px" y="0px"
	 width="123.182px" height="92.387px" viewBox="0 0 123.182 92.387" enable-background="new 0 0 123.182 92.387"
	 xml:space="preserve">
<path fill="#ECF0F1" d="M119.697,46.193l-14.792-32.54c1.745-1.41,2.883-3.541,2.883-5.951c0-4.259-3.447-7.699-7.699-7.699h-76.99
	c-4.252,0-7.698,3.44-7.698,7.699c0,2.41,1.138,4.541,2.879,5.951L3.485,46.193H0c0,12.751,10.342,19.246,23.097,19.246
	s23.098-6.495,23.098-19.246H42.71l-14.792-32.54c1.744-1.41,2.879-3.541,2.879-5.951h23.097V80.84H38.495
	c-4.252,0-7.699,3.444-7.699,7.699v3.85h61.591v-3.85c0-4.255-3.446-7.699-7.699-7.699H69.29V7.699h23.097
	c0,2.41,1.135,4.541,2.879,5.951l-14.792,32.54H76.99c0,12.752,10.343,19.248,23.098,19.248s23.097-6.496,23.097-19.248H119.7v0.002
	H119.697z M38.479,46.193H7.714l14.061-30.932c0.432,0.075,0.867,0.135,1.322,0.135s0.896-0.06,1.323-0.135L38.479,46.193z
	 M84.703,46.193l14.06-30.932c0.43,0.075,0.869,0.135,1.323,0.135c0.455,0,0.896-0.06,1.323-0.135l14.06,30.932H84.703z"/>
</svg>
