<?xml version="1.0" encoding="utf-8"?>
<!-- Generator: Adobe Illustrator 16.0.4, SVG Export Plug-In . SVG Version: 6.00 Build 0)  -->
<!DOCTYPE svg PUBLIC "-//W3C//DTD SVG 1.1//EN" "http://www.w3.org/Graphics/SVG/1.1/DTD/svg11.dtd">
<svg version="1.1" id="Layer_1" xmlns="http://www.w3.org/2000/svg" xmlns:xlink="http://www.w3.org/1999/xlink" x="0px" y="0px"
	 width="199.859px" height="125.786px" viewBox="0 0 199.859 125.786" enable-background="new 0 0 199.859 125.786"
	 xml:space="preserve">
<path fill="#FFFFFF" d="M59.193,0c5.99,0,11.451,0.529,16.385,1.586c4.933,1.057,9.16,2.791,12.684,5.197
	c3.523,2.408,6.254,5.609,8.192,9.602c1.938,3.994,2.906,8.926,2.906,14.798c0,6.343-1.438,11.628-4.315,15.855
	c-2.879,4.228-7.135,7.693-12.772,10.394c7.751,2.232,13.535,6.139,17.354,11.715c3.814,5.58,5.726,12.305,5.726,20.172
	c0,6.342-1.232,11.834-3.7,16.473c-2.466,4.642-5.785,8.429-9.952,11.361c-4.171,2.938-8.928,5.109-14.271,6.52
	c-5.346,1.408-10.834,2.113-16.472,2.113H0V0H59.193z M55.67,50.915c4.933,0,8.983-1.173,12.156-3.524
	c3.171-2.348,4.756-6.166,4.756-11.451c0-2.935-0.528-5.344-1.585-7.223c-1.058-1.878-2.467-3.348-4.229-4.404
	c-1.762-1.058-3.788-1.789-6.078-2.203c-2.291-0.41-4.669-0.616-7.135-0.616H27.659v29.421H55.67z M57.255,104.293
	c2.7,0,5.285-0.265,7.751-0.793c2.466-0.529,4.638-1.41,6.519-2.644c1.877-1.231,3.375-2.905,4.492-5.021
	c1.115-2.113,1.673-4.814,1.673-8.104c0-6.457-1.821-11.067-5.461-13.828c-3.642-2.76-8.457-4.141-14.445-4.141H27.659v34.528
	h29.596V104.293z"/>
<path fill="#FFFFFF" d="M140.159,101.651c3.758,3.643,9.16,5.461,16.208,5.461c5.048,0,9.395-1.26,13.035-3.787
	c3.641-2.523,5.872-5.197,6.694-8.016h22.021c-3.523,10.922-8.928,18.734-16.207,23.43c-7.284,4.699-16.094,7.047-26.427,7.047
	c-7.165,0-13.626-1.145-19.379-3.436c-5.756-2.289-10.631-5.549-14.622-9.777c-3.993-4.227-7.076-9.275-9.249-15.15
	c-2.175-5.871-3.259-12.332-3.259-19.379c0-6.809,1.114-13.151,3.348-19.024c2.229-5.871,5.399-10.951,9.514-15.24
	c4.108-4.285,9.012-7.662,14.71-10.129c5.695-2.467,12.007-3.699,18.938-3.699c7.751,0,14.504,1.497,20.261,4.492
	c5.753,2.994,10.48,7.02,14.182,12.067c3.699,5.051,6.369,10.807,8.016,17.264c1.645,6.461,2.229,13.213,1.763,20.26h-65.712
	C134.345,92.137,136.399,98.012,140.159,101.651z M168.434,53.733c-2.995-3.287-7.548-4.933-13.652-4.933
	c-3.994,0-7.312,0.677-9.953,2.027c-2.644,1.352-4.758,3.023-6.344,5.02c-1.585,1.998-2.702,4.113-3.347,6.342
	c-0.646,2.231-1.029,4.229-1.146,5.99h40.694C173.513,61.836,171.429,57.022,168.434,53.733z"/>
<rect x="129.721" y="6.387" fill="#FFFFFF" width="50.845" height="14.098"/>
</svg>
