<?xml version="1.0" encoding="utf-8"?>
<!-- Generator: Adobe Illustrator 16.0.4, SVG Export Plug-In . SVG Version: 6.00 Build 0)  -->
<!DOCTYPE svg PUBLIC "-//W3C//DTD SVG 1.1//EN" "http://www.w3.org/Graphics/SVG/1.1/DTD/svg11.dtd">
<svg version="1.1" id="Layer_1" xmlns="http://www.w3.org/2000/svg" xmlns:xlink="http://www.w3.org/1999/xlink" x="0px" y="0px"
	 width="199.86px" height="125.786px" viewBox="0 0 199.86 125.786" enable-background="new 0 0 199.86 125.786"
	 xml:space="preserve">
<path fill="#1769FF" d="M59.193,0c5.99,0,11.451,0.529,16.384,1.586s9.161,2.791,12.684,5.197c3.523,2.408,6.254,5.609,8.192,9.602
	c1.938,3.994,2.907,8.926,2.907,14.798c0,6.343-1.439,11.628-4.316,15.855c-2.879,4.228-7.135,7.693-12.772,10.394
	c7.751,2.232,13.535,6.139,17.353,11.715c3.815,5.58,5.726,12.305,5.726,20.172c0,6.342-1.233,11.834-3.7,16.473
	c-2.466,4.641-5.786,8.428-9.953,11.361c-4.17,2.938-8.927,5.109-14.27,6.52c-5.346,1.408-10.834,2.113-16.472,2.113H0V0H59.193z
	 M55.67,50.915c4.933,0,8.984-1.173,12.156-3.524c3.171-2.348,4.756-6.166,4.756-11.451c0-2.935-0.528-5.344-1.585-7.223
	c-1.057-1.878-2.466-3.348-4.228-4.404c-1.762-1.058-3.788-1.789-6.078-2.203c-2.291-0.41-4.669-0.616-7.135-0.616H27.659v29.421
	H55.67z M57.255,104.293c2.7,0,5.285-0.264,7.751-0.793s4.638-1.41,6.519-2.643c1.877-1.232,3.375-2.906,4.492-5.021
	c1.115-2.113,1.673-4.814,1.673-8.104c0-6.457-1.822-11.068-5.461-13.828c-3.642-2.76-8.457-4.141-14.446-4.141H27.659v34.529
	H57.255z"/>
<path fill="#1769FF" d="M140.159,101.651c3.758,3.643,9.161,5.461,16.208,5.461c5.048,0,9.395-1.26,13.036-3.787
	c3.64-2.523,5.872-5.197,6.694-8.016h22.021c-3.523,10.922-8.927,18.734-16.207,23.43c-7.284,4.699-16.093,7.047-26.426,7.047
	c-7.165,0-13.626-1.145-19.379-3.436c-5.756-2.289-10.631-5.549-14.622-9.777c-3.994-4.227-7.077-9.275-9.249-15.15
	c-2.175-5.871-3.259-12.332-3.259-19.379c0-6.809,1.114-13.152,3.347-19.025c2.229-5.871,5.4-10.951,9.514-15.24
	c4.109-4.285,9.012-7.662,14.71-10.129c5.695-2.467,12.007-3.699,18.938-3.699c7.751,0,14.504,1.497,20.26,4.492
	c5.753,2.994,10.481,7.02,14.182,12.067c3.699,5.051,6.369,10.807,8.016,17.264c1.644,6.461,2.229,13.213,1.762,20.26h-65.712
	C134.345,92.137,136.399,98.012,140.159,101.651z M168.434,53.733c-2.995-3.287-7.548-4.933-13.653-4.933
	c-3.994,0-7.311,0.677-9.953,2.027c-2.643,1.352-4.757,3.023-6.343,5.02c-1.585,1.998-2.703,4.113-3.347,6.342
	c-0.647,2.232-1.029,4.229-1.146,5.99h40.695C173.513,61.836,171.429,57.022,168.434,53.733z"/>
<rect x="129.721" y="6.387" fill="#1769FF" width="50.845" height="14.098"/>
</svg>
