<?xml version="1.0" encoding="utf-8"?>
<!-- Generator: Adobe Illustrator 16.0.4, SVG Export Plug-In . SVG Version: 6.00 Build 0)  -->
<!DOCTYPE svg PUBLIC "-//W3C//DTD SVG 1.1//EN" "http://www.w3.org/Graphics/SVG/1.1/DTD/svg11.dtd">
<svg version="1.1" id="Layer_1" xmlns="http://www.w3.org/2000/svg" xmlns:xlink="http://www.w3.org/1999/xlink" x="0px" y="0px"
	 width="198.944px" height="111.906px" viewBox="0 0 198.944 111.906" enable-background="new 0 0 198.944 111.906"
	 xml:space="preserve">
<path fill="#FFFFFF" d="M114.807,38.655c-8.419-1.573-17.952-2.065-28.158-0.343l21.1,43.694l91.196-26.753
	c0,0-33.08-52.896-131.698-35.799c-0.583,0.11-1.088,0.227-1.67,0.336L56.004,0L27.613,3.277l11.553,24.117
	c-59.826,25.14-33.313,84.512-33.313,84.512l91.313-26.784l-25.088-51.88c45.035-13.172,82.647,13.768,82.647,13.768l-30.386,8.937
	L114.807,38.655z M30.553,81.165c0,0-8.794-19.798,16.812-36.752l13.625,28.392L30.553,81.165z"/>
</svg>
