<?xml version="1.0" encoding="utf-8"?>
<!-- Generator: Adobe Illustrator 16.0.4, SVG Export Plug-In . SVG Version: 6.00 Build 0)  -->
<!DOCTYPE svg PUBLIC "-//W3C//DTD SVG 1.1//EN" "http://www.w3.org/Graphics/SVG/1.1/DTD/svg11.dtd">
<svg version="1.1" id="Layer_1" xmlns="http://www.w3.org/2000/svg" xmlns:xlink="http://www.w3.org/1999/xlink" x="0px" y="0px"
	 width="178.485px" height="100.398px" viewBox="0 0 178.485 100.398" enable-background="new 0 0 178.485 100.398"
	 xml:space="preserve">
<path fill="#CEE036" d="M103,34.68c-7.553-1.412-16.105-1.853-25.262-0.308l18.929,39.2l81.817-24.001
	c0,0-29.678-47.457-118.154-32.118c-0.523,0.099-0.976,0.203-1.499,0.302L50.245,0L24.773,2.94l10.365,21.637
	c-53.673,22.555-29.887,75.821-29.887,75.821l81.922-24.03L64.666,29.823c40.403-11.818,74.148,12.352,74.148,12.352l-27.261,8.018
	L103,34.68z M27.411,72.818c0,0-7.89-17.762,15.083-32.972l12.225,25.471L27.411,72.818z"/>
</svg>
