<?xml version="1.0" encoding="utf-8"?>
<!-- Generator: Adobe Illustrator 18.0.0, SVG Export Plug-In . SVG Version: 6.00 Build 0)  -->
<!DOCTYPE svg PUBLIC "-//W3C//DTD SVG 1.1//EN" "http://www.w3.org/Graphics/SVG/1.1/DTD/svg11.dtd">
<svg version="1.1" id="Layer_1" xmlns="http://www.w3.org/2000/svg" xmlns:xlink="http://www.w3.org/1999/xlink" x="0px" y="0px"
	 viewBox="0 90 612.4 612.4" enable-background="new 0 90 612.4 612.4" xml:space="preserve">
<rect x="125.8" y="130.4" fill="#FFFFFF" width="453.8" height="548.2"/>
<path fill="#3B5998" d="M565.3,90H47.2C21.1,90,0,111.1,0,137.2v518.1c0,26.1,21.1,47.2,47.2,47.2h518.1c26.1,0,47.2-21.1,47.2-47.2
	V137.2C612,111.1,590.9,90,565.3,90z M431.8,655.3H346V430.1h-59.3v-80.9H346c0,0,0-33.3,0-69.2c0-54.8,35-104.7,116.4-104.7
	c32.8,0,57.1,3.1,57.1,3.1l-1.8,75.5c0,0-24.7-0.4-51.7-0.4c-29.2,0-33.7,13.5-33.7,35.9c0,3.1,0,4,0,3.6c0,6.3,0,21.1,0,55.3h88.1
	l-3.6,80.9h-84.9V655.3z"/>
</svg>
