<?xml version="1.0" encoding="utf-8"?>
<!-- Generator: Adobe Illustrator 16.0.4, SVG Export Plug-In . SVG Version: 6.00 Build 0)  -->
<!DOCTYPE svg PUBLIC "-//W3C//DTD SVG 1.1//EN" "http://www.w3.org/Graphics/SVG/1.1/DTD/svg11.dtd">
<svg version="1.1" id="Layer_1" xmlns="http://www.w3.org/2000/svg" xmlns:xlink="http://www.w3.org/1999/xlink" x="0px" y="0px"
	 width="136.232px" height="136.232px" viewBox="0 0 136.232 136.232" enable-background="new 0 0 136.232 136.232"
	 xml:space="preserve">
<path fill="#3B5998" d="M125.753,0H10.479C4.697,0,0,4.692,0,10.479v115.274c0,5.787,4.697,10.479,10.479,10.479h115.273
	c5.792,0,10.479-4.691,10.479-10.479V10.479C136.232,4.692,131.545,0,125.753,0z M96.085,125.754H77.02V75.668H63.777V57.637H77.02
	c0,0,0-7.389,0-15.402c0-12.102,7.818-23.215,25.851-23.215c7.297,0,12.69,0.701,12.69,0.701l-0.419,16.834
	c0,0-5.506-0.051-11.513-0.051c-6.499,0-7.542,2.999-7.542,7.967c0,0.737,0,0.905,0,0.829c0,1.361,0,4.702,0,12.337h19.567
	l-0.85,18.031H96.085V125.754z"/>
</svg>
