<?xml version="1.0" encoding="utf-8"?>
<!-- Generator: Adobe Illustrator 16.0.4, SVG Export Plug-In . SVG Version: 6.00 Build 0)  -->
<!DOCTYPE svg PUBLIC "-//W3C//DTD SVG 1.1//EN" "http://www.w3.org/Graphics/SVG/1.1/DTD/svg11.dtd">
<svg version="1.1" id="Layer_1" xmlns="http://www.w3.org/2000/svg" xmlns:xlink="http://www.w3.org/1999/xlink" x="0px" y="0px"
	 width="45.865px" height="94.37px" viewBox="0 0 45.865 94.37" enable-background="new 0 0 45.865 94.37" xml:space="preserve">
<path fill="#FFFFFF" d="M11.708,94.37h16.857V50.087h16.55l0.75-15.943h-17.3c0-6.75,0-9.705,0-10.908c0,0.068,0-0.082,0-0.733
	c0-4.393,0.923-7.044,6.669-7.044c5.311,0,10.179,0.045,10.179,0.045L45.784,0.62c0,0-4.769-0.62-11.22-0.62
	C18.621,0,11.708,9.827,11.708,20.526c0,7.085,0,13.618,0,13.618H0v15.943h11.708V94.37z"/>
</svg>
