<?xml version="1.0" encoding="utf-8"?>
<!-- Generator: Adobe Illustrator 16.0.4, SVG Export Plug-In . SVG Version: 6.00 Build 0)  -->
<!DOCTYPE svg PUBLIC "-//W3C//DTD SVG 1.1//EN" "http://www.w3.org/Graphics/SVG/1.1/DTD/svg11.dtd">
<svg version="1.1" id="Layer_1" xmlns="http://www.w3.org/2000/svg" xmlns:xlink="http://www.w3.org/1999/xlink" x="0px" y="0px"
	 width="693px" height="243.625px" viewBox="0 0 693 243.625" enable-background="new 0 0 693 243.625" xml:space="preserve">
<polygon fill="#27AAE1" points="72,243.625 0,207.625 0,36.625 72,0.625 "/>
<polygon fill="#EF4136" points="0,36.625 72,0.625 216,81.625 216,162.625 "/>
<polygon fill="#00A79D" points="0,207.625 72,243.625 216,162.625 216,81.625 "/>
<polygon fill="#27AAE1" points="0,36.625 0,207.625 72,243.625 72,78.625 "/>
<linearGradient id="SVGID_1_" gradientUnits="userSpaceOnUse" x1="360" y1="649.25" x2="468" y2="649.25" gradientTransform="matrix(1 0 0 1 -252 -547.375)">
	<stop  offset="0" style="stop-color:#000000;stop-opacity:0"/>
	<stop  offset="1" style="stop-color:#000000"/>
</linearGradient>
<polygon opacity="0.8" fill="url(#SVGID_1_)" enable-background="new    " points="216,81.625 146.571,122.125 108,99.625 "/>
<linearGradient id="SVGID_2_" gradientUnits="userSpaceOnUse" x1="1818.7988" y1="1199.8584" x2="1926.6504" y2="1199.8584" gradientTransform="matrix(-0.5086 0.861 -0.861 -0.5086 2067.8933 -815.0612)">
	<stop  offset="0" style="stop-color:#000000;stop-opacity:0"/>
	<stop  offset="1" style="stop-color:#000000"/>
</linearGradient>
<polygon opacity="0.8" fill="url(#SVGID_2_)" enable-background="new    " points="72,243.625 72,165.625 112.256,142.143 "/>
<linearGradient id="SVGID_3_" gradientUnits="userSpaceOnUse" x1="1474.2676" y1="231.7285" x2="1585.5352" y2="231.7285" gradientTransform="matrix(-0.4916 -0.8708 0.8708 -0.4916 595.9695 1520.89)">
	<stop  offset="0" style="stop-color:#000000;stop-opacity:0"/>
	<stop  offset="1" style="stop-color:#000000"/>
</linearGradient>
<polygon opacity="0.8" fill="url(#SVGID_3_)" enable-background="new    " points="0,36.625 72,78.625 72,123.75 "/>
<polygon fill="#EF4136" points="414,63.625 234,63.625 279,0.625 414,0.625 "/>
<polygon fill="#00A79D" points="369,243.625 234,243.625 234,180.625 414,180.625 "/>
<polygon fill="#27AAE1" points="279,0.625 414,180.625 369,243.625 234,63.625 "/>
<linearGradient id="SVGID_4_" gradientUnits="userSpaceOnUse" x1="531" y1="759.5" x2="621" y2="759.5" gradientTransform="matrix(1 0 0 1 -252 -547.375)">
	<stop  offset="0" style="stop-color:#000000;stop-opacity:0"/>
	<stop  offset="1" style="stop-color:#000000"/>
</linearGradient>
<polygon opacity="0.8" fill="url(#SVGID_4_)" enable-background="new    " points="369,243.625 279,180.625 321.75,180.625 "/>
<linearGradient id="SVGID_5_" gradientUnits="userSpaceOnUse" x1="576" y1="611" x2="576" y2="548" gradientTransform="matrix(1 0 0 1 -252 -547.375)">
	<stop  offset="0" style="stop-color:#000000;stop-opacity:0"/>
	<stop  offset="1" style="stop-color:#000000"/>
</linearGradient>
<polygon opacity="0.8" fill="url(#SVGID_5_)" enable-background="new    " points="279,0.625 326.25,63.625 369,63.625 "/>
<polygon fill="#00A79D" points="603,180.625 522,180.625 621,0.625 693,36.625 "/>
<polygon fill="#EF4136" points="432,36.625 504,0.625 603,180.625 522,180.625 "/>
<polygon fill="#27AAE1" points="693,243.625 621,243.625 621,0.625 693,36.625 "/>
<polygon fill="#27AAE1" points="504,243.625 432,243.625 432,36.625 504,0.625 "/>
<linearGradient id="SVGID_6_" gradientUnits="userSpaceOnUse" x1="810.7207" y1="664.3975" x2="719.2789" y2="611.6035" gradientTransform="matrix(1 0 0 1 -252 -547.375)">
	<stop  offset="0" style="stop-color:#000000;stop-opacity:0"/>
	<stop  offset="1" style="stop-color:#000000"/>
</linearGradient>
<polygon opacity="0.8" fill="url(#SVGID_6_)" enable-background="new    " points="504,0.625 522,180.625 504,151.825 "/>
<linearGradient id="SVGID_7_" gradientUnits="userSpaceOnUse" x1="2389.7217" y1="663.7734" x2="2298.2791" y2="610.9789" gradientTransform="matrix(-1 0 0 1 2956 -547.375)">
	<stop  offset="0" style="stop-color:#000000;stop-opacity:0"/>
	<stop  offset="1" style="stop-color:#000000"/>
</linearGradient>
<polygon opacity="0.8" fill="url(#SVGID_7_)" enable-background="new    " points="621,0 603,180 621,151.2 "/>
</svg>
