<?xml version="1.0" encoding="utf-8"?>
<!-- Generator: Adobe Illustrator 16.0.4, SVG Export Plug-In . SVG Version: 6.00 Build 0)  -->
<!DOCTYPE svg PUBLIC "-//W3C//DTD SVG 1.1//EN" "http://www.w3.org/Graphics/SVG/1.1/DTD/svg11.dtd">
<svg version="1.1" id="Layer_1" xmlns="http://www.w3.org/2000/svg" xmlns:xlink="http://www.w3.org/1999/xlink" x="0px" y="0px"
	 width="1323px" height="180px" viewBox="0 0 1323 180" enable-background="new 0 0 1323 180" xml:space="preserve">
<path fill="#2C3E50" d="M118.3,54.5c-19.882,0-36,16.118-36,36s16.118,36,36,36c10.756,0,20.403-4.723,27-12.201V126.5h9v-36
	C154.3,70.618,138.182,54.5,118.3,54.5z M118.3,117.5c-14.912,0-27-12.088-27-27s12.088-27,27-27c14.912,0,27,12.088,27,27
	S133.212,117.5,118.3,117.5z"/>
<path fill="#2C3E50" d="M1036.3,54.5c-19.882,0-36,16.118-36,36s16.118,36,36,36c10.756,0,20.403-4.723,27-12.201V126.5h9v-36
	C1072.3,70.618,1056.182,54.5,1036.3,54.5z M1036.3,117.5c-14.912,0-27-12.088-27-27s12.088-27,27-27s27,12.088,27,27
	S1051.212,117.5,1036.3,117.5z"/>
<path fill="#2C3E50" d="M900.893,99.5c-3.707,10.484-13.701,18-25.458,18c-14.911,0-27-12.088-27-27s12.089-27,27-27
	c11.757,0,21.751,7.515,25.458,18h9.407c-3.996-15.527-18.091-27-34.865-27c-19.882,0-36,16.118-36,36s16.118,36,36,36
	c16.774,0,30.869-11.473,34.865-27H900.893z"/>
<path fill="#2C3E50" d="M980.758,99.5c-3.707,10.484-13.702,18-25.458,18c-14.912,0-27-12.088-27-27s12.088-27,27-27
	c11.756,0,21.751,7.515,25.458,18h9.407c-3.996-15.527-18.091-27-34.865-27c-19.882,0-36,16.118-36,36s16.118,36,36,36
	c16.774,0,30.869-11.473,34.865-27H980.758z"/>
<path fill="#2C3E50" d="M477.893,99.5c-3.707,10.484-13.701,18-25.458,18c-14.911,0-27-12.088-27-27s12.089-27,27-27
	c11.757,0,21.751,7.515,25.458,18h9.407c-3.996-15.527-18.091-27-34.865-27c-19.882,0-36,16.118-36,36s16.118,36,36,36
	c16.774,0,30.869-11.473,34.865-27H477.893z"/>
<path fill="#2C3E50" d="M64.3,0.5v66.201C57.703,59.222,48.056,54.5,37.3,54.5c-19.882,0-36,16.118-36,36s16.118,36,36,36
	c10.756,0,20.403-4.723,27-12.201V126.5h9V0.5H64.3z M37.3,117.5c-14.912,0-27-12.088-27-27s12.088-27,27-27
	c14.912,0,27,12.088,27,27S52.212,117.5,37.3,117.5z"/>
<path fill="#2C3E50" d="M280.3,117.5c-14.912,0-27-12.088-27-27h54h9c0-19.882-16.118-36-36-36c-19.882,0-36,16.118-36,36
	s16.118,36,36,36c16.774,0,30.869-11.473,34.865-27h-9.407C302.051,109.984,292.056,117.5,280.3,117.5z M280.3,63.5
	c11.756,0,21.751,7.515,25.458,18h-50.916C258.549,71.015,268.544,63.5,280.3,63.5z"/>
<path fill="#2C3E50" d="M1207.3,54.5c-10.756,0-20.402,4.723-27,12.201V0.5h-9v90v36h9v-36c0-14.912,12.088-27,27-27
	s27,12.088,27,27v36h9v-36C1243.3,70.618,1227.182,54.5,1207.3,54.5z"/>
<path fill="#2C3E50" d="M793.3,54.5c-10.758,0-20.407,4.725-27.004,12.206c-6.595-7.48-16.24-12.206-26.996-12.206
	c-19.882,0-36,16.118-36,36v36h9v-36c0-14.912,12.088-27,27-27c8.924,0,16.833,4.331,21.749,11.004
	c-2.396,4.82-3.749,10.249-3.749,15.996v36h9v-36c0-14.912,12.088-27,27-27s27,12.088,27,27v36h9v-36
	C829.3,70.618,813.183,54.5,793.3,54.5z"/>
<path fill="#2C3E50" d="M532.3,54.5c-19.883,0-36,16.118-36,36s16.117,36,36,36s36-16.118,36-36S552.183,54.5,532.3,54.5z
	 M532.3,117.5c-14.912,0-27-12.088-27-27s12.088-27,27-27s27,12.088,27,27S547.212,117.5,532.3,117.5z"/>
<path fill="#2C3E50" d="M1090.3,66.701V54.5h-9v72h9v-36c0-14.912,12.088-27,27-27v-9C1106.544,54.5,1096.896,59.223,1090.3,66.701z
	"/>
<path fill="#2C3E50" d="M1162.3,63.5v-9h-27v-18h-9v54c0,19.882,16.117,36,36,36v-9c-14.912,0-27-12.088-27-27v-27H1162.3z"/>
<path fill="#2C3E50" d="M613.3,63.5v-9h-27v-18h-9v54c0,19.882,16.117,36,36,36v-9c-14.912,0-27-12.088-27-27v-27H613.3z"/>
<path fill="#2C3E50" d="M658.3,63.5v-9h-27v-18h-9v54c0,19.882,16.117,36,36,36v-9c-14.912,0-27-12.088-27-27v-27H658.3z"/>
<polygon fill="#2C3E50" points="163.3,54.5 194.8,126.5 204.05,126.5 235.3,54.5 226.3,54.5 199.3,114.834 172.3,54.5 "/>
<path fill="#2C3E50" d="M1315.3,54.5v27v9c0,14.912-12.088,27-27,27s-27-12.088-27-27v-36h-9v36c0,19.882,16.117,36,36,36
	c10.756,0,20.403-4.723,27-12.201V144.5c0,14.912-12.088,27-27,27s-27-12.088-27-27h-9c0,19.882,16.117,36,36,36
	c19.884,0,36-16.118,36-36v-45v-9v-9v-27H1315.3z"/>
<path fill="#2C3E50" d="M383.8,63.5c13.334,0,13.5,9,13.5,9h9c0,0-1.583-18-22.5-18c-11.916,0-22.5,6.5-22.5,18c0,27,36,18,36,36
	c0,6.999-7.249,9-13.5,9c-13.499,0-13.583-9-13.583-9H361.3c0,0,0.834,18,22.5,18c13.584,0,22.5-6.833,22.5-18c0-27-36-18-36-36
	C370.3,65.416,377.967,63.5,383.8,63.5z"/>
</svg>
