<?xml version="1.0" encoding="utf-8"?>
<!-- Generator: Adobe Illustrator 16.0.4, SVG Export Plug-In . SVG Version: 6.00 Build 0)  -->
<!DOCTYPE svg PUBLIC "-//W3C//DTD SVG 1.1//EN" "http://www.w3.org/Graphics/SVG/1.1/DTD/svg11.dtd">
<svg version="1.1" id="Layer_1" xmlns="http://www.w3.org/2000/svg" xmlns:xlink="http://www.w3.org/1999/xlink" x="0px" y="0px"
	 width="309.801px" height="49.062px" viewBox="0 0 309.801 49.062" enable-background="new 0 0 309.801 49.062"
	 xml:space="preserve">
<path fill="#2C3E50" d="M24.728,3.946c0.354-2.25,2.854-1.469,2.643,0.028c-0.157,1.113-0.229,1.376-0.462,2.359l-0.537,2.283
	L26.184,9.45c1.593,1.182,2.999,2.444,4.216,3.787c1.217,1.343,2.273,2.766,3.169,4.27c0.895,1.504,1.562,2.99,2,4.458
	c0.439,1.47,0.658,2.918,0.658,4.353c0,1.86-0.332,3.572-0.994,5.129c-0.663,1.559-1.616,2.919-2.86,4.082
	c-1.245,1.164-2.713,2.066-4.404,2.713c-1.692,0.645-3.505,0.967-5.438,0.967c-2.99,0-6.23-0.606-9.722-1.826l-0.671-0.24
	c-1.325,0.752-2.605,1.308-3.84,1.666c-1.235,0.355-2.498,0.535-3.787,0.535c-1.343,0-2.43-0.256-3.263-0.766
	C0.417,38.064,0,37.397,0,36.574c0-0.645,0.228-1.204,0.685-1.679c0.456-0.476,1.096-0.848,1.92-1.114
	c0.823-0.269,1.781-0.403,2.874-0.403c1.54,0,4.028,0.477,7.466,1.424l0.618,0.188c1.146-1.109,2.256-2.658,3.33-4.646
	c1.575-2.918,3.142-7.159,4.7-12.729c0.806-2.775,1.423-5.192,1.853-7.251c-1.307-1.021-2.775-1.942-4.404-2.766
	c-1.629-0.824-3.241-1.47-4.834-1.936c-1.594-0.465-3.017-0.698-4.27-0.698C8.452,4.966,7.266,5.311,6.38,6
	C5.493,6.689,5.05,7.616,5.05,8.78c0,0.734,0.228,1.473,0.685,2.215c0.456,0.743,1.096,1.446,1.92,2.108
	c0.823,0.663,2.567,1.54,3.088,1.826c2.151,1.18-0.037,2.665-1.665,1.639c-0.776-0.489-2.806-1.871-3.693-3.145
	c-0.886-1.271-1.329-2.612-1.329-4.026c0-1.184,0.313-2.227,0.94-3.129C5.622,5.364,6.499,4.661,7.627,4.16s2.399-0.752,3.813-0.752
	c3.634,0,7.806,1.477,12.515,4.431C24.331,6.479,24.542,5.125,24.728,3.946z M11.172,36.789c-3.205-0.982-5.738-1.478-7.6-1.478
	c-0.788,0-1.401,0.131-1.84,0.39c-0.438,0.26-0.658,0.622-0.658,1.088c0,0.501,0.349,0.931,1.047,1.289
	c0.698,0.358,1.566,0.537,2.605,0.537C6.821,38.615,8.97,38.007,11.172,36.789z M14.636,35.366l0.725,0.241
	c2.238,0.681,4.082,1.164,5.532,1.45c1.45,0.284,2.837,0.43,4.163,0.43c1.862,0,3.549-0.447,5.062-1.343
	c1.513-0.896,2.712-2.142,3.599-3.733c0.886-1.593,1.329-3.339,1.329-5.236c0-4.939-3.151-10.024-9.453-15.254
	c-0.161,0.752-0.555,2.222-1.182,4.404c-1.021,3.438-1.88,6.016-2.578,7.734C19.774,29.216,17.375,32.984,14.636,35.366z"/>
<path fill="#2C3E50" d="M51.928,23.306c-0.204,0.896-2.339,9.104-2.339,9.104c-0.269,1.074-0.403,1.916-0.403,2.525
	c0,0.537-0.26,2.09,1.208,1.984c2.312-0.164,6.229-4.673,5.756-8.476l1.119,1.155c0,0-0.791,2.735-3.478,6.242
	c-0.634,0.827-2.022,2.787-4.256,2.852c-0.586,0.017-1.07-0.3-1.491-0.9c-0.42-0.6-0.631-1.293-0.631-2.081
	c0-0.571,0.215-1.871,0.645-3.894l0.215-1.021c-0.663,1.54-1.549,3.02-2.659,4.434c-1.862,2.361-3.644,3.545-5.344,3.545
	c-1.021,0-1.826-0.367-2.417-1.104c-0.591-0.731-0.886-1.719-0.886-2.952c0-1.685,0.479-3.446,1.437-5.29
	c0.958-1.846,2.148-3.361,3.571-4.554c1.424-1.188,2.807-1.786,4.149-1.786c1.414,0,2.471,0.521,3.169,1.56
	c0,0,0.177-0.521,0.336-1.157C50.045,21.841,52.191,22.149,51.928,23.306z M49.025,26.021c-0.215-0.683-0.577-1.213-1.088-1.601
	c-0.51-0.385-1.097-0.577-1.759-0.577c-0.788,0-1.621,0.362-2.498,1.09c-0.877,0.725-1.683,1.73-2.417,3.021
	c-0.573,1.021-1.052,2.148-1.437,3.383c-0.385,1.236-0.577,2.256-0.577,3.062c0,0.912,0.175,1.629,0.523,2.146
	c0.35,0.521,0.846,0.778,1.491,0.778c0.823,0,1.683-0.385,2.578-1.155c0.895-0.77,1.781-1.87,2.659-3.303
	c0.537-0.823,0.958-1.647,1.262-2.471c0.304-0.823,0.645-1.972,1.021-3.438L49.025,26.021z"/>
<path fill="#2C3E50" d="M55.658,24.506c-0.309-2.727,2.362-2.651,2.337-1.062c-0.012,0.797,0,0,0,0
	c0.054,2.613,0.206,5.361,0.457,8.244c0.143,1.504,0.269,2.618,0.376,3.344c0.107,0.725,0.232,1.213,0.376,1.463
	c0.143,0.251,0.34,0.377,0.591,0.377c0.662,0,1.934-1.204,3.545-3.787c3.086-4.949,2.062-8.445,2.096-9.228
	c0.084-1.973,1.682-1.685,1.922-0.98c0.175,0.513,0.064,1.024,0.064,2.206c0,2.381-1.415,5.523-4.243,9.427
	c-0.859,1.184-1.772,2.237-2.739,3.168c-0.448,0.412-0.81,0.703-1.087,0.873c-0.278,0.171-0.551,0.258-0.819,0.258
	c-0.43,0-0.743-0.173-0.94-0.513c-0.197-0.34-0.349-0.982-0.457-1.934C57.136,36.359,55.757,25.388,55.658,24.506z"/>
<path fill="#2C3E50" d="M80.004,34.134c0.245-0.39,0.895-0.206,0.45,0.412c-0.971,1.348-2.282,2.68-3.338,3.331
	c-1.055,0.653-2.191,0.979-3.41,0.979c-1.449,0-2.614-0.482-3.491-1.449s-1.316-2.247-1.316-3.841c0-1.611,0.425-3.245,1.276-4.901
	c0.85-1.655,1.916-3.023,3.195-4.106c1.281-1.083,2.807-1.519,3.681-1.485c0.734,0.026,1.443,0.114,1.917,0.544
	c0.474,0.43,0.726,0.945,0.726,1.626c0,1.379-1.357,3.092-2.861,4.471s-2.594,2.143-5.641,3.096c0,0-0.219,2.172,1.091,3.594
	c0.701,0.761,1.558,1.168,2.632,1.168c0.842,0,1.939-0.238,2.684-0.824C78.436,36.083,79.16,35.478,80.004,34.134z M71.457,31.243
	c0,0.094,3.021-0.349,4.733-1.97c1.975-1.869,2.235-3.576,2.235-4.238c0-0.842-0.636-1.308-1.405-1.308
	c-1.164,0-2.432,0.767-3.623,2.602S71.457,30.896,71.457,31.243z"/>
<path fill="#2C3E50" d="M87.753,37.756c-1.483-0.81-2.032-4.468,1.477-2.686s5.962,2.497,8.809,2.497
	c1.897,0,3.63-0.344,5.196-1.033s2.802-1.629,3.706-2.82c0.904-1.188,1.356-2.482,1.356-3.881c0-1.378-0.412-2.604-1.235-3.679
	c-0.823-1.075-2.31-2.318-4.458-3.733c-2.095-1.396-3.37-2.256-3.827-2.578c-0.456-0.32-1.052-0.776-1.785-1.367
	c-1.308-1.146-1.961-2.498-1.961-4.057c0-2.811,1.826-5.514,5.479-8.108c1.021-0.734,2.188-1.396,3.505-1.987
	c1.315-0.591,2.609-1.038,3.88-1.343c1.271-0.306,2.462-0.457,3.572-0.457c1.629,0,2.909,0.305,3.84,0.913
	c0.932,0.607,1.396,1.459,1.396,2.551c0,1.343-0.563,2.78-1.691,4.31c-1.128,1.531-3.182,3.325-4.619,4.23
	c-2.685,1.689-3.56-0.269-2.148-1.208c0.94-0.627,2.443-1.79,3.357-2.688c0.912-0.895,1.62-1.768,2.121-2.616
	c0.501-0.853,0.752-1.625,0.752-2.323c0-0.483-0.135-0.896-0.402-1.235c-0.27-0.34-0.654-0.6-1.155-0.779
	c-0.501-0.179-1.128-0.269-1.88-0.269c-1.396,0-2.896,0.273-4.498,0.819c-1.603,0.546-3.111,1.267-4.525,2.162
	c-3.151,1.985-4.727,4.197-4.727,6.633c0,0.681,0.188,1.318,0.564,1.92c0.375,0.6,1.033,1.273,1.974,2.025
	c0.939,0.754,2.313,1.721,4.122,2.9c1.343,0.877,2.358,1.594,3.048,2.148c0.69,0.554,1.258,1.137,1.706,1.746
	c1.002,1.271,1.504,2.692,1.504,4.27c0,1.218-0.318,2.453-0.954,3.706c-0.636,1.253-1.535,2.426-2.698,3.519
	c-2.722,2.562-6.5,3.842-11.334,3.842C92.067,39.099,89.236,38.565,87.753,37.756z"/>
<path fill="#2C3E50" d="M125.219,30.09c-1.093,1.54-2.825,5.127-5.429,7.252c-1.576,1.286-3.034,1.516-4.288,1.516
	c-1.378,0-2.502-0.482-3.37-1.449c-0.868-0.967-1.302-2.221-1.302-3.76c0-1.611,0.42-3.25,1.262-4.915
	c0.842-1.665,1.926-3.037,3.236-4.136c1.223-1.025,2.551-1.521,4.005-1.525c1.218-0.006,1.744,0.427,2.062,0.734
	c0.468,0.451,0.646,0.785,0.646,1.558c0,0.697-0.438,1.485-0.965,2.12c-0.528,0.636-1.04,1.014-1.702,1.232
	c-0.254,0.084-0.854,0.153-0.729-0.603s1.746-1.485,1.746-2.9c0-0.501-0.131-0.89-0.39-1.168c-0.26-0.275-0.604-0.416-1.034-0.416
	c-0.662,0-1.329,0.271-2.001,0.808c-0.671,0.537-1.302,1.285-1.894,2.24c-0.59,0.958-1.052,1.979-1.383,3.062
	c-0.331,1.084-0.496,2.18-0.496,3.29c0,1.325,0.312,2.399,0.939,3.223c0.627,0.824,1.45,1.235,2.471,1.235
	c0.877,0,2.246-0.571,3.041-1.166c3.594-2.688,5.328-7.701,6.222-8.847L125.219,30.09z"/>
<path fill="#2C3E50" d="M123.962,33.298c0-1.609,0.434-3.218,1.302-4.818c0.868-1.604,1.992-2.905,3.37-3.908
	c1.379-1.002,2.784-1.504,4.217-1.504c1.504,0,2.814,0.415,3.639,1.491c0.852,1.11,1.383,2.28,1.383,3.854
	c0,1.719-0.425,3.384-1.275,4.995c-0.85,1.611-1.97,2.932-3.356,3.961c-1.388,1.03-2.789,1.545-4.203,1.545
	c-1.521,0-2.748-0.515-3.679-1.545C124.427,36.337,123.962,34.98,123.962,33.298z M135.456,27.39c0-1.074-0.265-1.961-0.793-2.658
	c-0.528-0.699-1.204-1.048-2.027-1.048c-0.752,0-1.473,0.239-2.162,0.726c-0.689,0.482-1.32,1.19-1.893,2.121
	c-0.645,1.074-1.178,2.327-1.599,3.76c-0.421,1.435-0.631,2.703-0.631,3.813c0,1.325,0.26,2.346,0.778,3.062
	c0.52,0.716,1.263,1.074,2.229,1.074c1.558,0,2.927-1.083,4.108-3.25c0.609-1.109,1.093-2.354,1.451-3.732
	C135.276,29.878,135.456,28.589,135.456,27.39z"/>
<path fill="#2C3E50" d="M145.204,24.113l-2.041,8.942c-0.215,0.983-0.322,1.684-0.322,2.096c0,0.645,0.152,1.163,0.457,1.557
	c0.304,0.396,0.707,0.592,1.208,0.592c0.483,0,0.955-0.294,1.357-0.57c0.403-0.277,1.102-0.915,1.859-1.797
	c3.609-4.203,4.746-8.894,4.746-8.894l-0.374,3.811c-1.056,1.289-3.81,6.177-6.34,8.107c-0.702,0.536-1.401,0.792-2.082,0.792
	c-0.859,0-1.544-0.281-2.054-0.846c-0.511-0.563-0.766-1.303-0.766-2.215c0-0.683,0.134-1.666,0.403-2.955l1.745-8.62
	c0,0-1.945-0.03-2.578,0c-0.862,0.042-0.497-0.917,0.188-0.913c0.574,0.003,2.578,0,2.578,0s1.279-6.186,1.504-7.251
	c0.638-3.024,2.742-1.909,2.432-0.375c-0.226,1.117-1.734,7.626-1.734,7.626h6.878l-0.469,0.913H145.204z"/>
<path fill="#2C3E50" d="M155.061,24.113l-2.041,8.942c-0.215,0.983-0.322,1.684-0.322,2.096c0,0.645,0.152,1.163,0.457,1.557
	c0.304,0.396,0.707,0.592,1.208,0.592c0.483,0,0.927-0.139,1.329-0.417c0.404-0.275,1.019-0.854,1.842-1.729
	c0,0-0.073,0.082,0.32-0.322c0.396-0.404,0.674,0.075,0.402,0.402s-1.938,2.198-2.645,2.726c-0.708,0.528-1.401,0.792-2.083,0.792
	c-0.859,0-1.544-0.28-2.054-0.846c-0.511-0.563-0.766-1.303-0.766-2.215c0-0.683,0.134-1.666,0.403-2.955l1.745-8.62h-2.578
	l0.188-0.913h2.578c0,0,1.316-6.861,1.598-7.754c0.729-2.312,2.708-1.425,2.338,0.122c-0.217,0.904-1.734,7.632-1.734,7.632
	s3.39,0.004,4.354,0c0.961-0.004,0.534,0.913-0.188,0.913C158.688,24.115,155.061,24.113,155.061,24.113z"/>
<path fill="#2C3E50" d="M196.498,37.401c-0.438,2.086-2.916,1.794-2.502-0.365c0.169-0.882,5.37-25.679,5.37-25.679l0.188-0.94
	c0.125-0.662,0.188-1.119,0.188-1.37c0-0.34-0.09-0.622-0.27-0.846s-0.431-0.335-0.752-0.335c-0.5,0-1.064,0.305-1.691,0.913
	c-0.627,0.609-1.414,1.629-2.363,3.062c-1.468,2.187-3.07,5.221-4.807,9.104c-1.36,3.062-2.521,6.038-3.479,8.93
	c-0.958,2.894-1.771,5.98-2.126,7.506c-0.568,2.461-2.549,1.42-2.104-0.525c0.117-0.517,5.881-27.564,5.881-27.564
	c0.195-0.913,0.295-1.629,0.295-2.146c0-0.232-0.044-0.457-0.135-0.671c-0.09-0.216-0.211-0.377-0.361-0.483
	c-0.15-0.107-0.327-0.161-0.521-0.161c-0.844,0-1.871,0.819-3.091,2.458c-1.218,1.638-2.657,4.186-4.321,7.641
	c-0.789,1.559-1.549,3.188-2.283,4.889c-0.734,1.701-1.389,3.286-1.961,4.754s-1.028,2.706-1.745,4.817
	c-1.038,3.078-1.566,5.172-1.992,6.753c-0.608,2.258-4.188,2.232-3.708,0.25c0.223-0.923,0.708-1.5,1.5-3.668
	c0.562-1.536,1.941-6.567,1.5-4.707c-0.441,1.858,2.764-11.844,3.426-15.906c0.555-3.188,0.832-5.487,0.832-6.902
	c0-1.038-0.156-1.839-0.47-2.404c-0.313-0.562-0.748-0.846-1.304-0.846c-1.359,0-2.568,1.811-3.625,5.425
	c-0.662,2.274-1.254,5.275-1.53,7.358c-0.226,1.69-2.704,2.523-2.015-1.316c0.367-2.047,0.811-4.395,1.518-6.257
	c0.707-1.861,1.549-3.334,2.523-4.418c0.977-1.083,1.965-1.625,2.969-1.625c1.146,0,2.045,0.609,2.699,1.826
	c0.651,1.218,0.979,2.883,0.979,4.995c0,1.771-0.162,3.787-0.482,6.042c-0.091,0.662-0.375,2.346-0.859,5.049l-1.074,5.854
	l0.162-0.512c1.289-3.51,3.158-7.646,5.611-12.407c1.541-2.953,2.969-5.188,4.283-6.7c1.315-1.515,2.512-2.271,3.586-2.271
	c0.681,0,1.244,0.266,1.69,0.792c0.446,0.528,0.671,1.204,0.671,2.027c0,0.842-0.17,2.059-0.51,3.651l-3.115,14.879
	c0.232-0.662,0.771-1.936,1.611-3.813c2.451-5.442,4.548-9.368,6.283-11.776c1.736-2.406,3.34-3.61,4.809-3.61
	c0.732,0,1.318,0.255,1.759,0.765c0.438,0.511,0.657,1.188,0.657,2.028c0,0.681-0.15,1.71-0.456,3.088
	C201.837,12.028,196.758,36.16,196.498,37.401z"/>
<path fill="#2C3E50" d="M214.123,29.28c-1.48,2.678-2.83,5.895-5.852,8.396c-1.33,1.102-2.863,1.183-4.117,1.183
	c-1.379,0-2.502-0.482-3.37-1.449s-1.302-2.221-1.302-3.76c0-1.611,0.42-3.25,1.262-4.915s1.92-3.044,3.236-4.136
	c1.313-1.094,2.582-1.641,3.799-1.641c0.824,0,1.486,0.229,1.988,0.688c0.5,0.456,0.752,1.067,0.752,1.84
	c0,0.697-0.267,1.365-0.793,2c-0.527,0.636-1.139,1.232-1.746,1.232c-0.27,0-0.871-0.146-0.771-0.812s1.84-1.3,1.979-2.708
	c0.146-1.476-0.604-1.771-1.479-1.771c-0.662,0-1.419,0.475-2.091,1.012c-0.673,0.537-1.304,1.285-1.896,2.242
	c-0.59,0.958-1.052,1.979-1.383,3.062c-0.331,1.084-0.496,2.18-0.496,3.29c0,1.325,0.312,2.399,0.939,3.223
	c0.627,0.824,1.449,1.267,2.471,1.235c1.404-0.041,2.535-0.662,3.661-1.896c5.748-6.292,5.142-10.697,5.748-12.417L214.123,29.28z"
	/>
<path fill="#2C3E50" d="M228.836,17.319c-1.863,0.511-2.312-1.584-0.752-2.041s3.24-1.229,4.727-2.229
	c1.485-1.002,2.653-2.11,3.504-3.33c0.853-1.217,1.275-2.417,1.275-3.599c0-0.877-0.281-1.564-0.846-2.068
	c-0.562-0.501-1.32-0.752-2.27-0.752c-1.127,0-2.363,0.295-3.705,0.888c-1.346,0.591-2.674,1.415-3.988,2.471
	c-1.316,1.057-2.574,2.328-3.773,3.812c-1.307,1.631-2.398,3.33-3.275,5.104s-1.541,3.576-1.986,5.411
	c-0.447,1.836-0.672,3.737-0.672,5.707c0,3.348,0.771,6.002,2.311,7.963c1.539,1.96,2.971,3.021,5.762,2.958
	c1.719-0.039,6.131-0.753,8.803-4.862c1.298-2.49,1.279-2.703,1.279-2.703l-1,4.493c-1.279,1.085-2.021,1.738-4.17,2.794
	c-2.147,1.059-4.763,1.818-6.945,1.818c-1.547,0-2.936-0.328-4.465-1.271c-1.53-0.938-2.498-2.396-3.33-4.089
	c-0.832-1.69-1.25-3.675-1.25-5.946c0-1.647,0.242-3.366,0.727-5.156c0.482-1.791,1.204-3.604,2.162-5.438
	c0.957-1.835,2.09-3.61,3.396-5.331c1.379-1.825,2.908-3.46,4.592-4.899c1.684-1.441,3.371-2.557,5.062-3.345
	c1.691-0.786,3.209-1.182,4.554-1.182c1.271,0,2.287,0.363,3.047,1.087c0.762,0.728,1.143,1.706,1.143,2.941
	c0,1.379-0.456,2.813-1.37,4.31c-0.912,1.495-2.13,2.829-3.651,4.002C232.201,16.008,230.876,16.759,228.836,17.319z"/>
<path fill="#2C3E50" d="M248.812,24.246c-0.144,0.603-2.1,8.165-2.1,8.165c-0.27,1.074-0.338,1.919-0.4,2.525
	c-0.23,2.166,0.621,2.153,1.209,1.984c3.402-0.977,7.158-6.669,8.344-8.702c0,0,1.595-1.759,0.996-0.452
	c-1.08,2.354-2.312,4.396-4.529,7.021c-0.952,1.126-2.094,2.312-3.438,3.094c-0.734,0.429-1.857,0.812-2.232,0.812
	c-0.573,0-1.033-0.031-1.602-0.729c-0.531-0.652-0.521-1.465-0.521-2.253c0-0.571,0.215-1.871,0.646-3.894l0.215-1.021
	c-0.662,1.54-1.549,3.02-2.659,4.434c-1.861,2.361-3.644,3.545-5.345,3.545c-1.021,0-1.826-0.367-2.416-1.104
	c-0.592-0.731-0.888-1.719-0.888-2.953c0-1.684,0.479-3.445,1.438-5.289c0.957-1.846,2.148-3.361,3.57-4.554
	c1.424-1.188,3.808-1.786,5.148-1.786c1.414,0,1.473,0.521,2.169,1.56c0,0-0.024,0.049,0.295-1.021
	C247.207,21.987,249.441,21.571,248.812,24.246z M246.15,26.021c-0.215-0.683-0.576-1.213-1.088-1.601
	c-0.511-0.385-1.098-0.577-1.758-0.577c-0.789,0-1.621,0.362-2.498,1.09c-0.877,0.725-1.685,1.73-2.416,3.021
	c-0.574,1.021-1.055,2.148-1.438,3.383c-0.386,1.236-0.577,2.256-0.577,3.062c0,0.912,0.175,1.629,0.523,2.146
	c0.35,0.521,0.847,0.778,1.49,0.778c0.822,0,1.684-0.385,2.577-1.155c0.896-0.77,1.781-1.87,2.658-3.303
	c0.537-0.823,0.958-1.647,1.263-2.471s0.646-1.972,1.021-3.438L246.15,26.021z"/>
<path fill="#2C3E50" d="M253.796,31.349c1.449-1.94,2.753-4.12,3.272-5.731c-1.45-0.806-2.176-1.96-2.176-3.464
	c0-0.717,0.17-1.299,0.51-1.746c0.341-0.447,0.771-0.672,1.289-0.672c0.537,0,0.977,0.247,1.314,0.739
	c0.342,0.49,0.512,1.132,0.512,1.92c0,0.555-0.1,1.173-0.295,1.853c0.482,0.126,0.922,0.188,1.314,0.188
	c1.109,0,2.009-0.34,2.738-0.969c0.883-0.757,1.43-0.257,1.16,0.236c-0.469,0.859-0.668,1.283-0.668,1.283
	c-1.289,2.363-1.742,3.543-2.574,5.825s-1.248,3.986-1.248,5.115c0,0.411-0.018,1.603,1.113,1.435
	c3.229-0.479,6.955-4.422,7.834-8.766l-0.804,3.972c-0.696,1.211-2.851,3.531-4.476,4.635c-1.938,1.316-2.45,1.521-3.588,1.521
	c-0.699,0-1.25-0.232-1.652-0.698s-0.604-1.104-0.604-1.906c0-1.344,0.519-3.044,1.557-5.104c0.377-0.771,0.859-1.646,1.451-2.633
	c0.59-0.983,1.332-2.156,2.229-3.519l0.27-0.376c-0.592,0.537-1.158,0.918-1.705,1.142c-0.547,0.226-1.17,0.335-1.865,0.335
	c-0.322,0-0.663-0.044-1.021-0.134c-0.572,1.755-1.646,3.562-3.224,5.425L253.796,31.349z M257.659,24.006
	c0.071-0.445,0.106-0.821,0.106-1.128c0-0.627-0.104-1.119-0.31-1.477c-0.206-0.358-0.472-0.537-0.792-0.537
	c-0.182,0-0.336,0.085-0.473,0.255c-0.133,0.17-0.199,0.38-0.199,0.631C255.994,22.592,256.549,23.344,257.659,24.006z"/>
<path fill="#2C3E50" d="M271.006,24.113l-2.041,8.942c-0.215,0.983-0.322,1.684-0.322,2.096c0,0.645,0.152,1.163,0.457,1.557
	c0.306,0.396,0.707,0.592,1.209,0.592c0.482,0,0.945-0.116,1.367-0.32c0.44-0.213,1.293-0.75,2.094-1.596
	c3.031-3.189,3.998-7.569,3.998-7.569l-0.662,3.903c-1.858,3.188-3.938,5.458-5.387,6.465c-0.727,0.503-1.562,0.566-2.244,0.566
	c-0.857,0-1.543-0.281-2.054-0.846c-0.511-0.563-0.766-1.303-0.766-2.215c0-0.683,0.134-1.666,0.403-2.955l1.744-8.62
	c0,0-1.842-0.005-2.578,0s-0.4-0.913,0.188-0.913s2.578,0,2.578,0s1.34-6.42,1.504-7.251s2.771-1.878,2.578-1.021
	c-0.195,0.857-1.883,8.271-1.883,8.271s3.723,0.004,4.354,0s0.396,0.913-0.188,0.913C274.77,24.112,271.006,24.113,271.006,24.113z"
	/>
<path fill="#2C3E50" d="M275.801,37.828c0.141-0.479,6.417-32.92,6.596-33.932c0.248-1.418,2.998-2.389,2.36,0.374
	c-0.374,1.619-6.608,29.055-6.608,29.055c0.072-0.126,0.107-0.206,0.107-0.242l0.618-1.396c1.058-2.399,2.381-4.478,3.976-6.23
	c1.504-1.629,3.146-2.371,4.418-2.371c0.682,0,1.113,0.11,1.525,0.549c0.412,0.439,0.475,1.062,0.475,1.796
	c0,0.41-0.099,0.992-0.295,1.744l-0.27,1.128l-0.832,3.276l-0.242,1.047c-0.27,1.074-0.402,1.898-0.402,2.473
	c0,0.571,0.022,1.661,1.074,1.905c2.604,0.605,5.592-3.65,5.982-5.749l-0.467,2.5c0,0-0.469,0.771-1.125,1.612
	s-1.203,1.593-2.562,2.516c-0.922,0.625-2.047,0.865-2.607,0.865c-0.555,0-1.123-0.243-1.518-0.834s-0.496-1.332-0.496-2.119
	c0-0.482,0.116-1.334,0.35-2.552l1.021-5.693c0.161-0.842,0.242-1.468,0.242-1.88c0-0.376-0.1-0.662-0.296-0.857
	c-0.197-0.197-0.468-0.295-0.808-0.295c-0.662,0-1.424,0.389-2.283,1.168c-0.857,0.776-1.723,1.855-2.59,3.234
	c-0.869,1.378-1.625,2.853-2.271,4.417c-0.646,1.567-1.05,2.866-1.334,4.261C277.162,39.451,275.516,38.8,275.801,37.828z"/>
<path fill="#2C3E50" d="M290.477,47.987c-1.045-1.249,0.09-2.986,1.316-1.771c1.227,1.217,2.211,1.664,3.518,1.664
	c1.379,0,2.488-0.546,3.33-1.638s1.531-2.883,2.068-5.371l1.234-5.56c-1.969,2.311-3.75,3.465-5.344,3.465
	c-0.933,0-1.662-0.286-2.188-0.859c-0.528-0.573-0.792-1.343-0.792-2.31c0-0.646,0.08-1.354,0.24-2.122c0,0,1.543-8.537,1.826-9.643
	c0.498-1.937,2.78-1.977,2.396-0.24c-0.264,1.188-2.396,9.963-2.396,9.963c-0.215,0.877-0.322,1.528-0.322,1.96
	c0,0.607,0.185,1.104,0.552,1.491c0.366,0.385,0.854,0.575,1.464,0.575c0.662,0,1.393-0.291,2.188-0.873
	c0.797-0.579,1.688-1.452,2.672-2.616c0,0,2.099-9.267,2.312-10.261c0.531-2.479,2.58-1.586,2.207,0.149
	c-0.245,1.139-3.604,14.541-3.604,14.541c-0.467,1.898-0.908,3.385-1.33,4.459c-0.42,1.074-0.907,1.969-1.463,2.686
	c-1.756,2.258-3.896,3.385-6.418,3.385C292.473,49.062,291.036,48.656,290.477,47.987z"/>
<path fill="#2C3E50" d="M134.582,31.696c-0.973,0-2.455-0.161-3.281-0.5c-2.594-1.062-3.139-3.337-3.438-4.357
	c0,0,0.35-0.417,1.962-1.893c0,0-2.527,2.764,2.46,5.172c4.078,1.969,9.59-0.438,10.447-4.673l1.23,1.22
	C140.424,29.821,137.279,31.696,134.582,31.696z"/>
<path fill="#2C3E50" d="M68.955,32.552c-2.826-1.656-2.074-7.181-2.041-7.762l0.481-0.284c0.098,1.408,0.171,5.599,1.875,6.436
	L68.955,32.552z"/>
</svg>
