<?xml version="1.0" encoding="utf-8"?>
<!-- Generator: Adobe Illustrator 16.0.4, SVG Export Plug-In . SVG Version: 6.00 Build 0)  -->
<!DOCTYPE svg PUBLIC "-//W3C//DTD SVG 1.1//EN" "http://www.w3.org/Graphics/SVG/1.1/DTD/svg11.dtd">
<svg version="1.1" id="Layer_1" xmlns="http://www.w3.org/2000/svg" xmlns:xlink="http://www.w3.org/1999/xlink" x="0px" y="0px"
	 width="92.138px" height="74.875px" viewBox="0 0 92.138 74.875" enable-background="new 0 0 92.138 74.875" xml:space="preserve">
<path fill="#FFFFFF" d="M82.703,18.645c0.039,0.81,0.051,1.629,0.051,2.442c0,24.988-19.004,53.788-53.774,53.788
	c-10.675,0-20.612-3.136-28.979-8.493c1.479,0.177,2.982,0.267,4.512,0.267c8.856,0,17.006-3.024,23.479-8.095
	c-8.279-0.148-15.258-5.617-17.662-13.127c1.15,0.218,2.34,0.341,3.561,0.341c1.723,0,3.394-0.231,4.975-0.666
	c-8.645-1.735-15.162-9.371-15.162-18.535c0-0.084,0-0.158,0-0.235c2.553,1.411,5.471,2.269,8.568,2.365
	c-5.078-3.394-8.414-9.175-8.414-15.737c0-3.461,0.933-6.707,2.559-9.502c9.326,11.434,23.253,18.96,38.967,19.754
	c-0.328-1.379-0.494-2.838-0.494-4.306C44.887,8.461,53.351,0,63.795,0c5.431,0,10.348,2.294,13.799,5.967
	c4.293-0.852,8.349-2.423,11.999-4.589c-1.414,4.412-4.409,8.127-8.31,10.467c3.824-0.463,7.468-1.479,10.854-2.982
	C89.605,12.655,86.404,15.984,82.703,18.645z"/>
</svg>
