<?xml version="1.0" encoding="utf-8"?>
<!-- Generator: Adobe Illustrator 16.0.4, SVG Export Plug-In . SVG Version: 6.00 Build 0)  -->
<!DOCTYPE svg PUBLIC "-//W3C//DTD SVG 1.1//EN" "http://www.w3.org/Graphics/SVG/1.1/DTD/svg11.dtd">
<svg version="1.1" id="Layer_1" xmlns="http://www.w3.org/2000/svg" xmlns:xlink="http://www.w3.org/1999/xlink" x="0px" y="0px"
	 width="166.917px" height="135.643px" viewBox="0 0 166.917 135.643" enable-background="new 0 0 166.917 135.643"
	 xml:space="preserve">
<path fill="#4099FF" d="M149.825,33.776c0.069,1.468,0.092,2.953,0.092,4.425c0,45.269-34.429,97.441-97.417,97.441
	c-19.339,0-37.339-5.682-52.5-15.387c2.679,0.32,5.403,0.482,8.174,0.482c16.044,0,30.808-5.477,42.533-14.663
	c-14.997-0.269-27.641-10.176-31.995-23.782c2.083,0.396,4.238,0.618,6.45,0.618c3.121,0,6.147-0.421,9.011-1.206
	C18.512,78.562,6.706,64.729,6.706,48.126c0-0.15,0-0.284,0-0.424c4.623,2.556,9.91,4.11,15.522,4.285
	c-9.2-6.149-15.242-16.621-15.242-28.508c0-6.27,1.688-12.151,4.633-17.214c16.894,20.712,42.126,34.347,70.593,35.784
	c-0.594-2.498-0.896-5.14-0.896-7.8C81.316,15.328,96.651,0,115.57,0c9.838,0,18.745,4.157,24.998,10.811
	c7.777-1.544,15.124-4.391,21.738-8.314c-2.562,7.994-7.988,14.722-15.055,18.96c6.928-0.837,13.528-2.677,19.665-5.401
	C162.329,22.925,156.531,28.956,149.825,33.776z"/>
</svg>
